<?xml version="1.0" encoding="UTF-8"?>
<!DOCTYPE svg PUBLIC "-//W3C//DTD SVG 1.1//EN" "http://www.w3.org/Graphics/SVG/1.1/DTD/svg11.dtd">
<!-- Creator: CorelDRAW 2020 (64-Bit) -->
<svg xmlns="http://www.w3.org/2000/svg" xml:space="preserve" width="210mm" height="297mm" version="1.1" style="shape-rendering:geometricPrecision; text-rendering:geometricPrecision; image-rendering:optimizeQuality; fill-rule:evenodd; clip-rule:evenodd"
viewBox="0 0 21000 29700"
 xmlns:xlink="http://www.w3.org/1999/xlink"
 xmlns:xodm="http://www.corel.com/coreldraw/odm/2003">
 <defs>
  <style type="text/css">
   <![CDATA[
    .str1 {stroke:black;stroke-width:200;stroke-miterlimit:22.9256}
    .str0 {stroke:black;stroke-width:700;stroke-miterlimit:22.9256}
    .fil1 {fill:#FEFEFE}
    .fil0 {fill:#EF7F1A}
   ]]>
  </style>
 </defs>
 <g id="рождение">
  <metadata id="CorelCorpID_0Corel-Layer"/>
  <g id="_2390314842096">
   <path class="fil0 str0" d="M5709.87 13567.13c0,674.25 87.36,1072.76 256.21,1646.57 118.89,404.03 539.32,1444.88 777.87,1836.64l152.09 283.67c27.75,54.71 50.43,88.16 77.43,140.45 23.33,45.18 49.92,89.86 78.83,139.04 56.57,96.22 103.82,177.65 161.82,273.93l334.6 536.91c632.94,945.15 1030.28,1490.23 1742.56,2397.08 34.74,44.23 61.17,80.36 97.17,120.71l494.46 594.92c19.01,22.47 30.4,29.81 49.41,52.27l457.97 529.74c92.25,93.08 360.14,405.22 432.4,453.62l0.01 0c114.21,-76.48 414.36,-451.23 526.31,-563.07l152.07 -167.48c24.74,-29.42 23.45,-34.97 51.38,-64.81l700.02 -825.12c67.54,-86.49 129.05,-157.16 195.14,-240.61 258.01,-325.74 512.19,-646.94 759.44,-983.57 366.27,-498.66 1067.31,-1512.02 1396.65,-2103.9 184.58,-331.73 363.97,-648.48 533.15,-991.98l203.54 -450.09c93.69,-213.99 173.27,-398.23 248.22,-623.29 238.99,-717.73 375.96,-1153.82 375.96,-2006.16 0,-788.37 -274.72,-1887.75 -645.24,-2506.71l-237.85 -401.25c-171.69,-255.83 -353.32,-497.16 -566.08,-712.13 -55.29,-55.86 -82.36,-104.81 -145.07,-159.95 -743.35,-653.53 -1183.2,-962.78 -2231,-1269.55 -320.26,-93.77 -667.57,-147.49 -1022.51,-164.91l-521.66 0c-546.21,26.12 -1088.22,132.78 -1556.99,307.09 -305.42,113.57 -569.03,248.01 -849.21,414.48 -164.3,97.61 -508.13,342.45 -645.3,473.12 -35.87,34.17 -52.42,40.14 -87.34,72.44l-463.91 480.23c-51.61,60.91 -93.94,112.64 -143.47,176.08 -717.79,919.4 -1139.08,2132.53 -1139.08,3305.59z"/>
  </g>
  <path class="fil1 str1" d="M9744.77 12029.94c-91.5,0 -1853.8,261.32 -1982.36,283.19 -237.11,40.35 -524.43,25.7 -524.43,262.22 0,115.45 116.08,205.65 175.89,264.64l1053.7 1033.54c25.99,25.71 37.35,29.67 63.06,52.32 39.72,34.97 448.47,441.67 448.47,443.06 0,61.08 -12.28,93.74 -21.05,146.77l-173.75 1011.47c-32.54,195.66 -193.28,1041.47 -193.28,1212.2 0,97.36 71.85,199.28 188.79,199.28 115.51,0 554.31,-256.03 699.38,-328.51l954.34 -503.59c68.18,-33.99 521.18,-279.69 548.9,-279.69 17.97,0 476.31,248.92 538.4,279.71 95.98,47.6 175.96,93.46 269.31,139.76 290.99,144.31 652.94,354.03 947.38,500.05 114.54,56.81 329.77,192.27 437.05,192.27 282.16,0 168.88,-412.51 146.91,-545.47 -34.7,-209.98 -346.2,-1956.61 -346.2,-2034.74 50.36,-13.44 326.84,-312.18 390.5,-375.17 25.99,-25.72 37.34,-29.68 63.06,-52.32l330.46 -330.32c41.54,-41.78 75.62,-64.47 115.48,-104.79 75.46,-76.32 144.22,-144.4 220.17,-220.35l445.77 -435.28c110.32,-110.33 175.68,-145.75 175.68,-306.8 0,-183.43 -383.26,-201.37 -523.85,-220.84l-1319.01 -191.36c-101.95,-14.74 -226.19,-30.23 -329.82,-47.77l-334.11 -43.48 -996.42 -2024.32c-151.83,-305.38 -348.24,-254.67 -465.29,-14.27 -13.88,28.5 -17.82,45.03 -31.13,73.76 -109.78,236.95 -279.79,559.45 -398.62,797.09l-573.38 1167.74z"/>
 </g>
</svg>
