<?xml version="1.0" encoding="UTF-8"?>
<!DOCTYPE svg PUBLIC "-//W3C//DTD SVG 1.1//EN" "http://www.w3.org/Graphics/SVG/1.1/DTD/svg11.dtd">
<!-- Creator: CorelDRAW 2020 (64-Bit) -->
<svg xmlns="http://www.w3.org/2000/svg" xml:space="preserve" width="210mm" height="297mm" version="1.1" style="shape-rendering:geometricPrecision; text-rendering:geometricPrecision; image-rendering:optimizeQuality; fill-rule:evenodd; clip-rule:evenodd"
viewBox="0 0 21000 29700"
 xmlns:xlink="http://www.w3.org/1999/xlink"
 xmlns:xodm="http://www.corel.com/coreldraw/odm/2003">
 <defs>
  <style type="text/css">
   <![CDATA[
    .str0 {stroke:black;stroke-width:700;stroke-miterlimit:22.9256}
    .str1 {stroke:#2B2A29;stroke-width:20;stroke-miterlimit:22.9256}
    .fil2 {fill:#FEFEFE}
    .fil1 {fill:#2B2A29}
    .fil0 {fill:#F5B2B6}
   ]]>
  </style>
 </defs>
 <g id="участие_x0020_в_x0020_военных_x0020_действиях">
  <metadata id="CorelCorpID_0Corel-Layer"/>
  <g id="_2390368747584">
   <path class="fil0 str0" d="M5709.86 13567.13c0,674.25 87.37,1072.76 256.22,1646.57 118.89,404.03 539.32,1444.88 777.87,1836.64l152.09 283.67c27.75,54.71 50.43,88.16 77.43,140.45 23.33,45.18 49.92,89.86 78.83,139.04 56.56,96.22 103.82,177.65 161.82,273.93l334.6 536.91c632.94,945.15 1030.28,1490.23 1742.56,2397.08 34.74,44.23 61.17,80.36 97.17,120.71l494.46 594.92c19.01,22.47 30.4,29.81 49.41,52.27l457.97 529.74c92.25,93.08 360.14,405.23 432.4,453.62l0.01 0c114.21,-76.48 414.36,-451.23 526.31,-563.07l152.07 -167.48c24.74,-29.42 23.45,-34.97 51.38,-64.81l700.02 -825.12c67.54,-86.49 129.05,-157.16 195.14,-240.61 258.01,-325.74 512.19,-646.94 759.44,-983.57 366.27,-498.66 1067.31,-1512.02 1396.65,-2103.9 184.58,-331.73 363.97,-648.48 533.15,-991.98l203.54 -450.09c93.69,-213.99 173.27,-398.23 248.22,-623.29 238.99,-717.73 375.96,-1153.81 375.96,-2006.16 0,-788.37 -274.72,-1887.75 -645.24,-2506.71l-237.85 -401.25c-171.69,-255.83 -353.32,-497.16 -566.08,-712.13 -55.29,-55.86 -82.36,-104.81 -145.07,-159.95 -743.35,-653.53 -1183.2,-962.78 -2231,-1269.55 -320.26,-93.77 -667.57,-147.49 -1022.51,-164.91l-521.66 0c-546.21,26.12 -1088.22,132.78 -1556.99,307.09 -305.42,113.57 -569.03,248.01 -849.21,414.48 -164.3,97.61 -508.13,342.45 -645.3,473.12 -35.87,34.17 -52.42,40.14 -87.35,72.44l-463.9 480.23c-51.61,60.91 -93.94,112.64 -143.47,176.08 -717.79,919.4 -1139.09,2132.53 -1139.09,3305.59z"/>
  </g>
  <path class="fil1" d="M8203.5 17261.69c-86.65,-136.19 -597.5,-870.21 -646.6,-967.86 368.88,-259.97 814.5,-611.72 1192.5,-892.35 86.83,-64.46 654.67,-522.33 732.91,-529.19 14.35,56.55 57.74,99.62 89.67,147.6 71.76,107.86 30.18,157.91 41.33,336.5 6.69,107.28 0.76,68.48 -116.63,226.67l-212.22 275.69c-96.27,123.84 -1024.16,1362.9 -1080.96,1402.94zm1839.19 -2283.54c56.84,-31.65 117.6,-82.34 172.43,-120.98 67.07,105.42 86.21,102.66 86.21,257.09 0,202.95 -233.25,372.1 -431.06,272.21l0 -166.36c46.43,11.39 89.09,30.25 143.68,30.25 43.62,0 170.69,-84.45 83.94,-209.32 -31.24,-44.96 -26.67,-21.91 -55.2,-62.89zm-273.01 -120.98c-43.09,-67.73 -238.27,-317.4 -244.26,-393.19 50.36,-14.16 353.8,-253.58 400.14,-289.63l1194.78 -889.95c26.03,20.07 201.17,262.01 201.17,317.58 0,144.23 -285.88,300.27 -443.41,425.57l-300.92 227.7c-138.86,99.65 -263.22,202.64 -402.32,302.46 -71.05,50.99 -129.86,100.06 -201.16,151.23 -68.39,49.07 -133.35,108.88 -204.02,148.23zm1666.78 -1572.77c-17.81,-27.99 -30.69,-50.54 -51.84,-81.54 -34.07,-49.93 -43.87,-38.24 -48.74,-99.93 59.57,-16.74 989.28,-730.15 1071.56,-792.79l712.33 -535.72c123.11,-95.74 1019.55,-786.56 1089.85,-803.8 32.76,51.48 69.17,101.87 100.58,151.23l-2147.02 1626.85c-125.35,95.41 -236.07,174.49 -361.41,269.9 -62.89,47.87 -112.92,87.66 -175.67,132.69 -37.04,26.58 -54.99,42.82 -91.86,69.67 -35,25.49 -60.13,52.86 -97.78,63.44zm2514.52 -2465.01c-138.56,-217.79 -258.63,-50.94 -258.63,30.25 0,57.12 34.98,91.38 57.47,136.1 -47.7,13.41 -104.06,66.81 -149.45,99.79 -51.38,37.33 -92.61,68.83 -141.96,107.68l-578.99 434.1c-102.06,77.69 -193.99,146.76 -293.36,220.54l-1441.02 1084.48c-100.06,78.77 -193.6,141.45 -293.65,220.23l-1516.41 1142.26c-41.45,25.42 -41.22,14.21 -96.3,3.67 -148.01,-28.3 -345.48,-92.11 -345.48,105 0,112.78 88.99,122.38 184.6,138.41 38.07,6.38 102.77,15.99 136.33,22.86 81.54,16.7 63.35,16.23 95.76,80.69l-1957.09 1478.93c-210.35,147.19 -47.63,253.15 181.14,601.94 41.86,63.82 532.53,809.39 601.65,864.67 128.36,102.66 247.72,-129.93 374.16,-294.3l787.66 -1031.12c64.5,-85.2 467.36,-622.01 486.64,-622.01 50.32,0 73.82,24.05 143.93,31.2 68.77,7 67.97,6.99 142.11,-1.33 330.81,-37.12 637.89,-440.67 403.96,-892.18 -24.24,-46.77 -33.2,-51.81 -57.77,-90.43 51.46,-14.46 747.45,-550.54 827.3,-611.32 275.43,-209.67 322.2,-221.15 322.2,-568.26 68.02,-19.11 2680.74,-2000.5 2981.08,-2231.06 163.65,-125.62 -18.34,-287.97 -193.12,-551.98 -102.13,-154.29 -199.89,-60.39 -299.99,17.89 -35.26,27.57 -68.01,48.81 -102.77,73.3z"/>
  <path class="fil2 str1" d="M9769.68 14857.17c70.67,-39.35 135.63,-99.16 204.02,-148.23 71.3,-51.17 130.11,-100.24 201.16,-151.23 139.1,-99.82 263.46,-202.81 402.32,-302.46l300.92 -227.7c157.53,-125.3 443.41,-281.34 443.41,-425.57 0,-55.57 -175.14,-297.51 -201.17,-317.58l-1194.78 889.95c-46.34,36.05 -349.78,275.47 -400.14,289.63 5.99,75.79 201.17,325.46 244.26,393.19z"/>
  <path class="fil2 str1" d="M11534.24 13220.96c36.87,-26.85 54.82,-43.09 91.86,-69.67 62.75,-45.03 112.78,-84.82 175.67,-132.69 125.34,-95.41 236.06,-174.49 361.41,-269.9l2147.02 -1626.85c-31.41,-49.36 -67.82,-99.75 -100.58,-151.23 -70.3,17.24 -966.74,708.06 -1089.85,803.8l-712.33 535.72c-82.28,62.64 -1011.99,776.05 -1071.56,792.79 4.87,61.69 14.67,50 48.74,99.93 21.15,31 34.03,53.55 51.84,81.54 37.65,-10.58 62.78,-37.95 97.78,-63.44z"/>
  <path class="fil2 str1" d="M9613.31 15356.39c-11.15,-178.59 30.43,-228.64 -41.33,-336.5 -31.93,-47.98 -75.32,-91.05 -89.67,-147.6 -78.24,6.86 -646.08,464.73 -732.91,529.19 -378,280.63 -823.62,632.38 -1192.5,892.35 49.1,97.65 559.95,831.67 646.6,967.86 56.8,-40.04 984.69,-1279.1 1080.96,-1402.94l212.22 -275.69c117.39,-158.19 123.32,-119.39 116.63,-226.67z"/>
  <path class="fil2 str1" d="M10097.89 15041.04c86.75,124.87 -40.32,209.32 -83.94,209.32 -54.59,0 -97.25,-18.86 -143.68,-30.25l0 166.36c197.81,99.89 431.06,-69.26 431.06,-272.21 0,-154.43 -19.14,-151.67 -86.21,-257.09 -54.83,38.64 -115.59,89.33 -172.43,120.98 28.53,40.98 23.96,17.93 55.2,62.89z"/>
 </g>
</svg>
