<?xml version="1.0" encoding="UTF-8"?>
<!DOCTYPE svg PUBLIC "-//W3C//DTD SVG 1.1//EN" "http://www.w3.org/Graphics/SVG/1.1/DTD/svg11.dtd">
<!-- Creator: CorelDRAW 2020 (64-Bit) -->
<svg xmlns="http://www.w3.org/2000/svg" xml:space="preserve" width="210mm" height="297mm" version="1.1" style="shape-rendering:geometricPrecision; text-rendering:geometricPrecision; image-rendering:optimizeQuality; fill-rule:evenodd; clip-rule:evenodd"
viewBox="0 0 21000 29700"
 xmlns:xlink="http://www.w3.org/1999/xlink"
 xmlns:xodm="http://www.corel.com/coreldraw/odm/2003">
 <defs>
  <style type="text/css">
   <![CDATA[
    .str1 {stroke:black;stroke-width:200;stroke-miterlimit:22.9256}
    .str0 {stroke:black;stroke-width:700;stroke-miterlimit:22.9256}
    .fil1 {fill:#FEFEFE}
    .fil0 {fill:#5CA595}
   ]]>
  </style>
 </defs>
 <g id="переезд_x002f_путешествие">
  <metadata id="CorelCorpID_0Corel-Layer"/>
  <g id="_2390325925088">
   <path class="fil0 str0" d="M5709.86 13567.13c0,674.25 87.37,1072.76 256.22,1646.57 118.89,404.03 539.32,1444.88 777.87,1836.64l152.09 283.67c27.75,54.71 50.43,88.16 77.43,140.45 23.33,45.18 49.92,89.86 78.83,139.04 56.56,96.22 103.82,177.65 161.82,273.93l334.6 536.91c632.94,945.15 1030.28,1490.23 1742.56,2397.08 34.74,44.23 61.17,80.36 97.17,120.71l494.46 594.92c19.01,22.47 30.4,29.81 49.41,52.27l457.97 529.74c92.25,93.08 360.14,405.23 432.4,453.62l0.01 0c114.21,-76.48 414.36,-451.23 526.31,-563.07l152.07 -167.48c24.74,-29.42 23.45,-34.97 51.38,-64.81l700.02 -825.12c67.54,-86.49 129.05,-157.16 195.14,-240.61 258.01,-325.74 512.19,-646.94 759.44,-983.57 366.27,-498.66 1067.31,-1512.02 1396.65,-2103.9 184.58,-331.73 363.97,-648.48 533.15,-991.98l203.54 -450.09c93.69,-213.99 173.27,-398.23 248.22,-623.29 238.99,-717.73 375.96,-1153.81 375.96,-2006.16 0,-788.37 -274.72,-1887.75 -645.24,-2506.71l-237.85 -401.25c-171.69,-255.83 -353.32,-497.16 -566.08,-712.13 -55.29,-55.86 -82.36,-104.81 -145.07,-159.95 -743.35,-653.53 -1183.2,-962.78 -2231,-1269.55 -320.26,-93.77 -667.57,-147.49 -1022.51,-164.91l-521.66 0c-546.21,26.12 -1088.22,132.78 -1556.99,307.09 -305.42,113.57 -569.03,248.01 -849.21,414.48 -164.3,97.61 -508.13,342.45 -645.3,473.12 -35.87,34.17 -52.42,40.14 -87.35,72.44l-463.9 480.23c-51.61,60.91 -93.94,112.64 -143.47,176.08 -717.79,919.4 -1139.09,2132.53 -1139.09,3305.59z"/>
  </g>
  <g id="_2390325923888">
   <path class="fil1 str1" d="M9784.39 10807.28l2068.22 0 0 517.06 -2068.22 0 0 -517.06zm-517.06 -161.58l0 678.64 -517.05 0 0 5170.56 4136.44 0 0 -5170.56 -517.05 0 0 -678.64c0,-181.79 -173.68,-355.47 -355.48,-355.47l-2391.38 0c-184.91,0 -355.48,173.85 -355.48,355.47z"/>
   <path class="fil1 str1" d="M7199.11 12148.4l0 3490.13c0,449.3 439.61,856.37 824.06,856.37l339.31 0 0 -5170.56c-357.59,0 -607.92,-30.88 -901.09,262.28 -135.43,135.44 -262.28,359.44 -262.28,561.78z"/>
   <path class="fil1 str1" d="M13274.52 16494.9c363.31,0 608.1,32.55 909.19,-270.34 122.95,-123.68 254.18,-345.77 254.18,-586.03l0 -3490.13c0,-219.75 -148.15,-447.64 -262.28,-561.78 -293.14,-293.13 -543.4,-262.28 -901.09,-262.28l0 5170.56z"/>
  </g>
 </g>
</svg>
