<?xml version="1.0" encoding="UTF-8"?>
<!DOCTYPE svg PUBLIC "-//W3C//DTD SVG 1.1//EN" "http://www.w3.org/Graphics/SVG/1.1/DTD/svg11.dtd">
<!-- Creator: CorelDRAW 2020 (64-Bit) -->
<svg xmlns="http://www.w3.org/2000/svg" xml:space="preserve" width="210mm" height="297mm" version="1.1" style="shape-rendering:geometricPrecision; text-rendering:geometricPrecision; image-rendering:optimizeQuality; fill-rule:evenodd; clip-rule:evenodd"
viewBox="0 0 21000 29700"
 xmlns:xlink="http://www.w3.org/1999/xlink"
 xmlns:xodm="http://www.corel.com/coreldraw/odm/2003">
 <defs>
  <style type="text/css">
   <![CDATA[
    .str0 {stroke:black;stroke-width:700;stroke-miterlimit:22.9256}
    .str1 {stroke:#2B2A29;stroke-width:20;stroke-miterlimit:22.9256}
    .fil2 {fill:#FEFEFE}
    .fil0 {fill:#EA556F}
    .fil3 {fill:#7688A1}
    .fil1 {fill:black}
   ]]>
  </style>
 </defs>
 <g id="работа_x002f_учеба">
  <metadata id="CorelCorpID_0Corel-Layer"/>
  <g id="_2390403042736">
   <path class="fil0 str0" d="M5709.86 13567.13c0,674.25 87.37,1072.76 256.22,1646.57 118.89,404.03 539.32,1444.88 777.87,1836.64l152.09 283.67c27.75,54.71 50.43,88.16 77.43,140.45 23.33,45.18 49.92,89.86 78.83,139.04 56.56,96.22 103.82,177.65 161.82,273.93l334.6 536.91c632.94,945.15 1030.28,1490.23 1742.56,2397.08 34.74,44.23 61.17,80.36 97.17,120.71l494.46 594.92c19.01,22.47 30.4,29.81 49.41,52.27l457.97 529.74c92.25,93.08 360.14,405.23 432.4,453.62l0.01 0c114.21,-76.48 414.36,-451.23 526.31,-563.07l152.07 -167.48c24.74,-29.42 23.45,-34.97 51.38,-64.81l700.02 -825.12c67.54,-86.49 129.05,-157.16 195.14,-240.61 258.01,-325.74 512.19,-646.94 759.44,-983.57 366.27,-498.66 1067.31,-1512.02 1396.65,-2103.9 184.58,-331.73 363.97,-648.48 533.15,-991.98l203.54 -450.09c93.69,-213.99 173.27,-398.23 248.22,-623.29 238.99,-717.73 375.96,-1153.81 375.96,-2006.16 0,-788.37 -274.72,-1887.75 -645.24,-2506.71l-237.85 -401.25c-171.69,-255.83 -353.32,-497.16 -566.08,-712.13 -55.29,-55.86 -82.36,-104.81 -145.07,-159.95 -743.35,-653.53 -1183.2,-962.78 -2231,-1269.55 -320.26,-93.77 -667.57,-147.49 -1022.51,-164.91l-521.66 0c-546.21,26.12 -1088.22,132.78 -1556.99,307.09 -305.42,113.57 -569.03,248.01 -849.21,414.48 -164.3,97.61 -508.13,342.45 -645.3,473.12 -35.87,34.17 -52.42,40.14 -87.35,72.44l-463.9 480.23c-51.61,60.91 -93.94,112.64 -143.47,176.08 -717.79,919.4 -1139.09,2132.53 -1139.09,3305.59z"/>
  </g>
  <g id="_2390403044320">
   <path class="fil1" d="M8702.67 14547.08c-23.33,-1.94 -80.15,-43.3 -102.8,-56.77l-304.35 -185.27 273.29 -502.46c15.53,-28.94 111.72,-210.09 128.37,-229.24 48.22,207.22 83.53,284.26 221.39,422.24 35.93,35.93 75.16,71.36 119.7,94.88 -11.6,21.96 -25.26,37.36 -40.92,58.2 -15.53,20.71 -27.51,36.62 -42.42,56.58 -23.14,30.81 -246.89,321.62 -252.26,341.84zm5308.91 -1914.49c3.87,46.54 15.79,100.56 22.34,148.22 74.23,543.44 167.98,1102.92 242.03,1644.94l76.72 522.99c3.56,20.96 10.48,55.7 10.98,76.97 -59.51,4.99 -270.91,49.53 -313.58,49.53l-346.64 -2371.72c-7.61,-48.16 -5.3,-34.25 42.36,-39.61l265.79 -31.32zm-3251.39 418.13c-29.69,-0.68 -91.45,-20.15 -121.02,-27.51 -40.11,-10.04 -76.66,-19.21 -118.83,-29.75 -45.78,-11.42 -206.79,-57.58 -238.79,-58.26 2.37,-28.57 253.7,-437.59 295.18,-513.57l216.21 -388.94c8.3,-14.22 14.66,-29.38 22.21,-43.85l141.29 -265.8c30.37,-61.32 58.76,-120.95 89.82,-179.71 33.12,7.67 246.9,127.63 287.13,152.95l950.98 600.46c153.14,91.45 321.19,204.86 476.01,299.67l135.49 84.59c23.89,15.03 47.66,30.07 70.43,45.1l275.09 170.55 121.01 0c0,36.05 8.8,71.86 14.16,106.85 6.24,40.42 9.8,70.43 15.72,110.85l207.04 1432.41c9.79,66.69 14.91,55.52 -48.47,67.75l-620.92 132.8c-72.3,16.66 -137.49,27.51 -209.03,44.04 -141.79,32.63 -275.41,56.46 -417.95,88.14 -328.55,73.11 -579.69,85.4 -908.18,-9.73 -195.06,-56.45 -531.28,-243.53 -726.28,-341.02l-1064.62 -536.28c-118.65,-60.76 -234.3,-118.64 -354.82,-178.84 -221.76,-110.79 -282.58,-361.86 -132.3,-563.35 84.21,-112.9 198.92,-156.44 339.78,-144.72 55.89,4.62 333.79,78.16 400.35,94.82 151.39,37.86 385.56,99.49 529.72,130.37l527.67 132.56 513.75 -746c14.04,-21.08 28.63,-30.37 30.88,-57.2 -21.4,-4.99 -131,-76.04 -159.88,-93.19 -27.94,-16.66 -137.29,-88.77 -159.19,-93.88 -5.8,21.58 -172.67,264.49 -189.26,289.37l-190.38 288.32zm-3058.83 1166.31c-234.55,0 -434.97,-221.2 -361.24,-443.77l793.47 -1962.76c45.6,-116.53 165.36,-118.46 284.51,-139.17 192.94,-33.56 377.58,-68.87 569.9,-101.24l567.4 -103.8c-4,14.78 -18.97,31.06 -27.51,44.04l-487.25 734.02c-19.33,32.12 -34.62,57.51 -53.64,89.45l-288.07 498.59c-70.61,127.82 -167.11,289.19 -232.92,416.32l-302.54 561.17c-16.04,32.5 -33.13,60.63 -49.41,93.57l-52.77 95.81c-78.66,119.08 -204.29,217.77 -359.93,217.77zm2211.6 -1380.89c-72.36,-1.62 -368.23,-110.04 -517.13,-110.04 -35.24,0 -94.07,7.92 -128.94,14.1 -48.47,8.61 -90.7,28.07 -113.09,29.94l643.69 -1012.23 427.36 -584.93c16.59,-20.52 117.71,-138.92 122.76,-157.82 16.91,4.56 37.31,19.59 52.78,29.76l370.84 228.8 -359.43 696.91 -275.03 484.18c-76.16,127.19 -154.57,250.52 -223.81,381.33zm-2948.8 1023.27c0,139.29 53.77,289.94 127.63,400.53 126.38,189.2 335.73,314.64 571.08,314.64 83.72,0 157.2,-12.35 234.67,-34.87 119.46,-34.74 57.77,-25.82 278.71,104.68 137.61,81.22 269.17,171.35 404.28,255.88 35.12,21.95 66,41.98 101.87,63.19 34.06,20.15 68.74,53.08 108.29,62.25 39.61,-74.85 413.39,-568.15 489.55,-676.69l71.61 -98.99 1446.89 737.19c49.22,24.58 95.88,47.97 146.65,73.36 50.59,25.27 98.06,51.28 145.97,74.11 180.46,86.14 444.52,166.11 708.63,166.11 310.65,0 416.32,-29.63 693.6,-87.58l1172.04 -252.94c23.33,2.37 18.4,40.92 21.02,60.25l40.48 295.12c6.49,44.6 19.34,103.18 20.34,150.21 75.48,0 430.92,-56.2 509.95,-67.74 65.75,-9.55 455.43,-68.5 513.32,-69.81 0,-32.87 -7.36,-65.81 -12.6,-97.43 -37.55,-225.82 -66.43,-448.7 -99.81,-675.88l-328.61 -2229.56c-4.12,-29.44 -13.04,-69.24 -15.6,-99.93 -44.41,3.68 -97.37,12.53 -145.46,19.52l-434.48 60.63c-37.42,5.31 -421.93,52.09 -435.28,60.26 -12.97,7.99 -8.86,9.23 -6.42,27.2 4.74,34.81 14.03,75.42 14.9,112.97l-324.3 -203.92c-153.64,-91.32 -304.67,-191.69 -455.87,-286.82l-259.87 -163.68c-44.04,-26.33 -83.72,-52.96 -128.63,-80.47 -46.04,-28.26 -87.39,-52.84 -131.87,-82.65 -169.67,-114.1 -350.07,-214.09 -520.43,-326.81 -29.38,-19.4 -232.05,-144.03 -275.09,-154.01 2.87,-12.42 16.34,-43.23 22.02,-55.02l-728.41 -476.45c-40.29,-26.95 -79.59,-55.4 -119.08,-78.98 -27.44,-16.34 -102.05,-71.61 -126.25,-77.22 -69.37,103.55 -187.08,241.97 -267.24,348.95 -17.46,23.26 -114.46,163.99 -133.49,174.6 -22.39,12.41 -542.95,99.12 -617.49,114.15 -231.3,46.66 -469.97,83.03 -702.33,128.38 -111.97,21.89 -433.03,66.68 -513.19,108.54 -150.02,78.28 -193.5,222.63 -252.14,369.47l-119.95 292.68c-71.99,160.44 -177.04,429.98 -240.79,589.92l-360.74 882.61c-32.31,80.65 -88.08,221.51 -88.08,330.05z"/>
   <path class="fil1" d="M7376.8 16027.02c0,43.73 1.75,60.7 32.13,94.38 25.7,28.57 62.44,32.13 99.93,32.13 19.52,0 91.13,-41.05 107.91,-68.12 8.92,-14.47 13.73,-23.7 22.34,-38.18l67.8 -113.71c11.42,-15.72 78.97,-41.42 115.59,-60.51 114.65,-59.7 261.25,-161.31 360.68,-238.91 24.64,-19.28 42.42,-34.94 66.62,-54.46l278.83 -260.31c13.1,-14.85 20.53,-16.47 25.46,-35.06 -17.91,-4.74 -85.53,-50.65 -106.86,-63.69 -19.77,-12.1 -31.5,-20.08 -50.9,-31.56l-159.13 -99.43c-36.06,-24.27 -67.99,-42.17 -104.49,-66.12l-314.7 -196.87c-22.21,-13.91 -91.39,-60.32 -111.1,-64.94l-91.38 304.72c-37.68,151.77 -81.22,344.46 -90.33,509.33l-10.85 187.26c0.68,51.71 -2.5,43.85 -24.27,74.73l-40.73 58.26c-27.88,41.18 -72.55,90.21 -72.55,131.06z"/>
   <path class="fil1" d="M10512.61 10261.43l631.59 391.68c35.74,23.08 68.61,43.42 104.54,66.06 22.15,13.91 91.39,60.32 111.1,64.94 3.37,-40.05 93.13,-306.22 93.51,-462.23 0.25,-104.55 3.87,-226.75 -72.99,-317.45 -121.01,-142.66 -287.31,-132.06 -445.7,-63.69 -105.54,45.6 -279.52,169.36 -362.98,253.26 -17.97,18.09 -52.52,43.04 -59.07,67.43z"/>
  </g>
  <path class="fil2 str1" d="M12284.37 12296.74l-950.98 -600.46c-40.23,-25.33 -254,-145.28 -287.13,-152.96 -31.06,58.77 -59.45,118.4 -89.83,179.72l-141.29 265.8c-7.54,14.47 -13.9,29.63 -22.21,43.86l-216.2 388.93c-41.48,75.98 -292.8,485 -295.18,513.56 32,0.69 193.01,46.85 238.79,58.27 42.17,10.54 78.73,19.71 118.83,29.75 29.57,7.37 91.33,26.82 121.02,27.51l190.39 -288.31c16.59,-24.9 183.45,-267.8 189.25,-289.38 21.9,5.11 131.25,77.23 159.19,93.87 28.89,17.16 138.49,88.21 159.88,93.2 -2.25,26.83 -16.84,36.12 -30.88,57.2l-513.76 746 -527.66 -132.56c-144.16,-30.88 -378.32,-92.5 -529.72,-130.37 -66.56,-16.65 -344.47,-90.2 -400.36,-94.81 -140.85,-11.73 -255.57,31.81 -339.77,144.72 -150.27,201.48 -89.45,452.56 132.3,563.34 120.52,60.19 236.17,118.08 354.81,178.85l1064.63 536.27c195,97.5 531.22,284.58 726.28,341.03 328.49,95.12 579.63,82.84 908.18,9.73 142.54,-31.7 276.16,-55.52 417.94,-88.15 71.55,-16.52 136.74,-27.38 209.03,-44.04l620.93 -132.8c63.38,-12.23 58.27,-1.06 48.47,-67.75l-207.04 -1432.42c-5.93,-40.41 -9.47,-70.42 -15.72,-110.84 -5.36,-34.99 -14.16,-70.8 -14.16,-106.85l-121.01 0 -275.1 -170.55c-22.76,-15.03 -46.53,-30.06 -70.42,-45.1l-135.49 -84.58c-154.83,-94.82 -322.87,-208.23 -476.01,-299.68z"/>
  <path class="fil2 str1" d="M13703.43 12703.52l346.64 2371.72c42.67,0 254.07,-44.54 313.58,-49.53 -0.49,-21.27 -7.43,-56.01 -10.97,-76.97l-76.73 -522.99c-74.05,-542.01 -167.8,-1101.49 -242.04,-1644.94 -6.54,-47.66 -18.46,-101.69 -22.33,-148.21l-265.79 31.3c-47.66,5.38 -49.97,-8.54 -42.36,39.62z"/>
  <path class="fil2 str1" d="M9912.96 12836.14c69.24,-130.81 147.64,-254.14 223.81,-381.32l275.03 -484.19 359.44 -696.9 -370.86 -228.81c-15.46,-10.17 -35.87,-25.21 -52.77,-29.76 -5.05,18.9 -106.16,137.3 -122.75,157.82l-427.37 584.93 -643.69 1012.23c22.39,-1.88 64.62,-21.33 113.09,-29.94 34.88,-6.18 93.7,-14.1 128.94,-14.1 148.91,0 444.77,108.41 517.13,110.04z"/>
  <path class="fil3 str1" d="M8466.01 13248.72c65.81,-127.14 162.3,-288.51 232.91,-416.32l288.07 -498.6c19.04,-31.94 34.31,-57.33 53.65,-89.45l487.25 -734.02c8.54,-12.98 23.51,-29.25 27.51,-44.04l-567.4 103.79c-192.32,32.38 -376.97,67.69 -569.9,101.25 -119.14,20.71 -238.91,22.65 -284.51,139.17l-793.47 1962.76c-73.73,222.57 126.7,443.77 361.24,443.77 155.63,0 281.26,-98.68 359.92,-217.77l52.79 -95.81c16.27,-32.94 33.37,-61.08 49.4,-93.58l302.54 -561.15z"/>
  <path class="fil2 str1" d="M8697.18 13573.34c-16.65,19.15 -112.84,200.3 -128.37,229.24l-273.29 502.46 304.35 185.27c22.65,13.47 79.48,54.83 102.8,56.77 5.36,-20.22 229.12,-311.03 252.27,-341.85 14.91,-19.95 26.88,-35.86 42.41,-56.57 15.66,-20.84 29.32,-36.25 40.92,-58.2 -44.53,-23.51 -83.78,-58.95 -119.7,-94.88 -137.86,-137.99 -173.16,-215.02 -221.39,-422.24z"/>
  <path class="fil2 str1" d="M8466.01 13248.72c65.81,-127.14 162.3,-288.51 232.91,-416.32l288.07 -498.6c19.04,-31.94 34.31,-57.33 53.65,-89.45l487.25 -734.02c8.54,-12.98 23.51,-29.25 27.51,-44.04l-567.4 103.79c-192.32,32.38 -376.97,67.69 -569.9,101.25 -119.14,20.71 -238.91,22.65 -284.51,139.17l-793.47 1962.76c-73.73,222.57 126.7,443.77 361.24,443.77 155.63,0 281.26,-98.68 359.92,-217.77l52.79 -95.81c16.27,-32.94 33.37,-61.08 49.4,-93.58l302.54 -561.15z"/>
 </g>
</svg>
